<?xml version="1.0" standalone="no"?>
<!DOCTYPE svg PUBLIC "-//W3C//DTD SVG 20010904//EN"
 "http://www.w3.org/TR/2001/REC-SVG-20010904/DTD/svg10.dtd">
<svg version="1.0" xmlns="http://www.w3.org/2000/svg"
 width="512.000000pt" height="512.000000pt" viewBox="0 0 512.000000 512.000000"
 preserveAspectRatio="xMidYMid meet">

<g transform="translate(0.000000,512.000000) scale(0.100000,-0.100000)"
fill="#000000" stroke="none">
<path d="M1855 4757 c13 -101 35 -380 30 -385 -3 -3 -5 2 -5 10 0 9 -12 18
-27 21 -16 3 -417 89 -891 192 -475 102 -866 184 -870 181 -3 -3 29 -311 72
-683 42 -373 76 -685 76 -693 0 -11 -27 -26 -80 -45 -71 -27 -77 -31 -53 -36
16 -4 51 -7 80 -8 29 0 55 -6 60 -13 4 -7 26 -176 49 -375 l41 -363 -41 -362
c-23 -200 -45 -369 -49 -375 -5 -8 -31 -14 -60 -14 -29 -1 -64 -4 -80 -8 -24
-5 -18 -9 53 -36 53 -19 80 -34 80 -45 0 -8 -34 -320 -76 -693 -43 -372 -75
-680 -72 -683 4 -3 395 79 870 181 474 103 875 189 891 192 15 3 27 12 27 21
0 8 2 13 5 10 3 -3 -3 -99 -14 -214 -11 -115 -19 -209 -18 -210 1 0 43 8 94
19 65 14 94 24 97 36 3 9 8 114 12 234 l7 218 -28 29 -29 30 32 11 c30 10 32
14 32 57 0 26 3 58 7 71 5 22 4 23 -18 18 -21 -6 -288 -39 -1344 -167 -132
-16 -240 -28 -241 -27 -3 3 123 471 211 786 l32 114 -39 116 c-22 64 -42 118
-44 120 -2 2 -13 -4 -23 -14 -19 -17 -25 -16 -143 5 -68 12 -127 26 -131 30
-4 4 22 110 59 236 62 213 66 232 55 272 -8 31 -8 53 0 85 11 39 7 58 -55 271
-37 126 -63 232 -59 236 4 4 63 18 131 30 118 21 124 22 143 5 10 -10 21 -16
23 -14 2 2 22 56 44 120 l39 116 -32 114 c-88 315 -214 783 -211 786 1 1 109
-11 241 -27 1056 -128 1323 -161 1344 -167 22 -5 23 -4 18 18 -4 13 -7 45 -7
71 0 43 -2 47 -32 57 l-32 11 27 28 c24 25 27 36 27 98 0 119 -13 382 -19 392
-3 6 -48 19 -99 30 l-93 20 6 -41z m45 -452 c0 -19 -4 -35 -8 -35 -4 0 -6 16
-4 35 2 19 6 35 8 35 2 0 4 -16 4 -35z m0 -3490 c0 -19 -2 -35 -4 -35 -2 0 -6
16 -8 35 -2 19 0 35 4 35 4 0 8 -16 8 -35z"/>
<path d="M3173 4777 c-65 -14 -94 -24 -97 -36 -3 -9 -8 -114 -12 -234 l-7
-218 28 -29 29 -30 -32 -11 c-30 -10 -32 -14 -32 -57 0 -26 -3 -58 -7 -71 -5
-22 -4 -23 18 -18 21 6 288 39 1344 167 132 16 240 28 241 27 3 -3 -98 -376
-173 -646 -36 -128 -65 -243 -65 -255 1 -11 18 -72 39 -133 l39 -113 21 21 21
21 123 -22 c68 -13 127 -26 132 -30 4 -3 -22 -110 -59 -236 -62 -213 -66 -232
-55 -271 8 -32 8 -54 0 -85 -11 -40 -7 -59 55 -272 37 -126 63 -233 59 -236
-5 -4 -64 -17 -132 -30 l-123 -22 -21 21 -21 21 -39 -113 c-21 -61 -38 -122
-39 -133 0 -12 29 -127 65 -255 75 -270 176 -643 173 -646 -1 -1 -109 11 -241
27 -1056 128 -1323 161 -1344 167 -22 5 -23 4 -18 -18 4 -13 7 -45 7 -71 0
-43 2 -47 32 -57 l32 -11 -29 -30 -28 -29 7 -218 c4 -120 9 -225 12 -234 3
-12 32 -22 97 -36 51 -11 93 -19 94 -19 1 1 -7 95 -18 210 -11 115 -17 211
-14 214 3 3 5 -2 5 -10 0 -9 12 -18 28 -21 15 -3 416 -89 890 -192 475 -102
866 -184 870 -181 3 3 -29 311 -72 683 -42 373 -76 685 -76 693 0 11 27 26 80
45 71 27 77 31 53 36 -16 4 -51 7 -80 8 -29 0 -55 6 -60 14 -4 6 -26 175 -49
375 l-41 362 41 363 c23 199 45 368 49 375 5 7 31 13 60 13 29 1 64 4 80 8 24
5 18 9 -53 36 -53 19 -80 34 -80 45 0 8 34 320 76 693 43 372 75 680 72 683
-4 3 -395 -79 -870 -181 -474 -103 -875 -189 -890 -192 -16 -3 -28 -12 -28
-21 0 -8 -2 -13 -5 -10 -3 3 3 99 14 214 11 115 19 209 18 210 -1 0 -43 -8
-94 -19z m59 -472 c2 -19 0 -35 -4 -35 -4 0 -8 16 -8 35 0 19 2 35 4 35 2 0 6
-16 8 -35z m0 -3490 c-2 -19 -6 -35 -8 -35 -2 0 -4 16 -4 35 0 19 4 35 8 35 4
0 6 -16 4 -35z"/>
<path d="M2185 4544 c58 -115 121 -238 140 -274 19 -36 78 -154 132 -262 54
-109 100 -198 103 -198 3 0 49 89 103 198 54 108 113 226 132 262 119 225 244
482 233 478 -7 -3 -115 -27 -240 -54 l-228 -48 -227 48 c-126 27 -234 51 -241
54 -7 2 34 -89 93 -204z"/>
<path d="M1740 3709 c-184 -87 -397 -187 -472 -223 l-137 -64 42 -97 c27 -63
49 -100 62 -106 11 -4 157 -19 325 -34 168 -14 359 -31 426 -37 l121 -12 -183
-246 c-101 -135 -197 -264 -214 -287 l-31 -43 31 -42 c17 -24 113 -153 214
-288 l183 -246 -121 -12 c-67 -6 -258 -23 -426 -37 -168 -15 -314 -30 -325
-34 -13 -6 -35 -43 -62 -106 l-42 -97 92 -43 c51 -24 265 -124 476 -224 212
-99 385 -180 387 -178 1 1 9 173 18 382 26 621 28 646 35 643 3 -2 97 -72 208
-155 112 -84 207 -153 213 -153 6 0 101 69 213 153 111 83 205 153 208 155 7
3 9 -22 35 -643 9 -209 17 -381 18 -382 2 -2 175 79 387 178 211 100 425 200
476 224 l92 43 -42 97 c-27 63 -49 100 -62 106 -11 4 -157 19 -325 34 -168 14
-359 31 -426 37 l-121 12 183 246 c101 135 197 264 214 288 l31 42 -31 43
c-17 23 -113 152 -214 287 l-183 246 121 12 c67 6 258 23 426 37 168 15 314
30 325 34 13 6 35 43 62 106 l42 97 -92 43 c-51 24 -265 124 -476 224 -212 99
-385 180 -387 178 -1 -1 -9 -173 -18 -382 -26 -621 -28 -646 -35 -643 -3 2
-97 72 -208 156 -112 83 -207 152 -213 152 -6 0 -104 -70 -217 -155 -113 -86
-207 -154 -209 -152 -2 2 -8 127 -14 278 -6 150 -15 357 -20 459 -5 102 -10
209 -10 238 0 28 -3 52 -7 51 -5 -1 -159 -72 -343 -160z m512 -1030 c57 -61
103 -114 103 -119 0 -13 -205 -230 -217 -230 -6 0 -8 13 -4 35 4 19 7 107 7
195 0 88 -3 176 -7 195 -4 22 -2 35 4 35 6 0 57 -50 114 -111z m734 76 c-4
-19 -7 -107 -7 -195 0 -88 3 -176 7 -195 4 -22 2 -35 -4 -35 -12 0 -217 217
-217 230 0 13 205 230 217 230 6 0 8 -13 4 -35z m-339 -100 c43 -47 79 -89 80
-93 2 -4 -35 -47 -82 -97 l-85 -90 -85 90 c-47 50 -84 93 -82 97 4 14 159 178
167 178 5 0 44 -38 87 -85z"/>
<path d="M930 2663 c0 -5 7 -29 15 -55 12 -42 12 -54 -1 -99 -9 -28 -13 -53
-10 -56 5 -5 126 97 126 107 0 7 -117 110 -124 110 -3 0 -6 -3 -6 -7z"/>
<path d="M4118 2617 c-32 -29 -58 -55 -58 -57 0 -10 121 -112 126 -107 3 3 -1
28 -10 56 -13 45 -13 57 -1 99 25 79 21 80 -57 9z"/>
<path d="M1495 2560 c0 -26 2 -27 15 -15 13 13 13 17 0 30 -13 13 -15 11 -15
-15z"/>
<path d="M3610 2574 c-11 -12 -11 -18 1 -29 12 -12 14 -10 14 15 0 35 1 34
-15 14z"/>
<path d="M2457 1112 c-54 -108 -113 -226 -132 -262 -119 -225 -244 -482 -233
-478 7 3 115 27 241 54 l227 48 228 -48 c125 -27 233 -51 240 -54 11 -4 -114
253 -233 478 -19 36 -78 154 -132 262 -54 109 -100 198 -103 198 -3 0 -49 -89
-103 -198z"/>
</g>
</svg>
